OpenSim_Sub02_CSBaseline_GRF.mot
version=1
nRows=57
nColumns=19
inDegrees=no
endheader
time	lFx	lFy	lFz	lCOPx	lCOPy	lCOPz	rFx	rFy	rFz	rCOPx	rCOPy	rCOPz	lMx	lMy	lMz	rMx	rMy	rMz
52.92000000	59.89694480	320.90480391	10.73279790	0.81014333	0	-0.61456600	-73.55709341	395.84594846	0.44036956	1.20995356	0	-0.43073522	0	-0.61892041	0	0	0.08183172	-0.00000000
52.93000000	54.35472347	267.54730207	4.72400480	0.81029042	0	-0.61704630	-80.84780696	420.62952499	-6.95322158	1.20502050	0	-0.42935457	0	-0.68068496	0	0	-0.08573446	0
52.94000000	45.19385293	211.15777796	0.08627247	0.81236689	0	-0.62163932	-85.76459142	441.70960957	-16.35420815	1.20122299	0	-0.42840460	0	-1.15007531	0	0	-0.17277473	0.00000000
52.95000000	33.30227052	156.61677599	-2.36943485	0.81244265	0	-0.62521701	-90.24917687	465.69711416	-27.00343710	1.19733599	0	-0.42752804	0	-2.14142027	0	0	-0.38365204	0
52.96000000	20.31012362	109.10521770	-2.93811136	0.80020691	0	-0.61774436	-95.10299799	493.93707280	-36.81154509	1.19291536	0	-0.42668376	0	-3.39512270	0	0	-0.65973517	0
52.97000000	8.38637493	72.30526821	-2.80915822	0.75640673	0	-0.58117925	-99.37882587	523.70496030	-44.10915662	1.18782437	0	-0.42595766	0	-4.32279068	0	0	-0.93918538	-0.00000000
52.98000000	-0.41646831	46.88284821	-2.96495218	0.65841785	0	-0.49670702	-101.70807053	551.31524875	-48.27584559	1.18212677	0	-0.42547488	0	-4.41355202	0	0	-1.24589057	0
52.99000000	-5.02538815	30.13276983	-3.60533661	0.49410752	0	-0.36266418	-101.44505621	573.85667523	-49.24864219	1.17577664	0	-0.42528337	0	-3.61641040	0	0	-1.48694648	0
53.00000000	-6.20267887	18.68729325	-4.46401088	0.28804416	0	-0.20702531	-98.51801158	589.44536164	-47.41695392	1.16889686	0	-0.42529993	0	-2.27867629	0	0	-1.57828852	0.00000000
53.01000000	-5.65429269	10.49568938	-5.37563901	0.11050345	0	-0.07773361	-93.06544227	597.11441596	-43.73730164	1.16143581	0	-0.42541524	0	-0.96420504	0	0	-1.51732617	0
53.02000000	-4.64003214	4.84294316	-6.32383877	0.01319020	0	-0.00811858	-85.64629302	596.93775901	-39.61157730	1.15366734	0	-0.42550530	0	-0.17698970	0	0	-1.33761838	0
53.03000000	-3.69241524	1.62655586	-7.28815082	-0.01850175	0	0.01395086	-77.20792829	589.63784341	-36.16057058	1.14587678	0	-0.42544957	0	0.11150609	0	0	-1.11619371	0.00000000
53.04000000	-3.16371461	0.46723388	-7.80380275	-0.01840367	0	0.01339502	-68.79148540	576.35491843	-34.05222900	1.13822159	0	-0.42518672	0	0.13662652	0	0	-0.93982761	0.00000000
53.05000000	-3.00274647	0.38285466	-7.94366791	-0.00996670	0	0.00712646	-61.28483593	558.98161209	-33.32241950	1.13078631	0	-0.42472281	0	0.08080836	0	0	-0.78212871	-0.00000000
53.06000000	-3.02207592	0.53864610	-8.02301516	-0.00318657	0	0.00221627	-55.08195506	539.88931898	-33.59985987	1.12360162	0	-0.42410883	0	0.02915576	0	0	-0.70809441	-0.00000000
53.07000000	-3.11548966	0.68775526	-7.96963850	0.00005786	0	-0.00009156	-50.16371372	521.16255774	-34.46214914	1.11678481	0	-0.42342269	0	0.00220869	0	0	-0.77527287	0
53.08000000	-3.22458581	0.76976438	-7.99303088	0.00088705	0	-0.00065834	-46.30686476	504.07504113	-35.48887496	1.11049607	0	-0.42277056	0	-0.00590727	0	0	-0.87811783	0.00000000
53.09000000	-3.33443370	0.87412216	-7.95081220	0.00070031	0	-0.00050693	-43.10210229	489.42170190	-36.21103907	1.10479202	0	-0.42216934	0	-0.00534780	0	0	-0.96782166	-0.00000000
53.10000000	-3.42282977	0.99099910	-7.94060124	0.00033100	0	-0.00023531	-40.07946310	477.58503910	-36.26393237	1.09944391	0	-0.42161271	0	-0.00275613	0	0	-1.03012802	0
53.11000000	-3.50023628	1.04606910	-7.95018498	0.00008232	0	-0.00005614	-36.97194259	468.57177630	-35.60782235	1.09415769	0	-0.42112034	0	-0.00081301	0	0	-0.99718963	0.00000000
53.12000000	-3.56623541	1.06655589	-7.89513088	-0.00002088	0	0.00001677	-33.91491980	462.22332635	-34.35250788	1.08879255	0	-0.42070518	0	0.00007101	0	0	-0.86267083	0.00000000
53.13000000	-3.60526391	1.03889111	-7.87210979	-0.00003855	0	0.00002833	-31.14006055	458.38523898	-32.78106470	1.08348218	0	-0.42032600	0	0.00027169	0	0	-0.65414280	0
53.14000000	-3.62986801	0.98871007	-7.83020614	-0.00002560	0	0.00001843	-28.69377509	456.85313732	-31.08424148	1.07824638	0	-0.41997064	0	0.00020044	0	0	-0.37056964	-0.00000000
53.15000000	-3.65654980	0.93033518	-7.79181533	-0.00001048	0	0.00000740	-26.50345378	457.49578987	-29.39018339	1.07299482	0	-0.41965229	0	0.00009004	0	0	-0.06171936	0
53.16000000	-3.68443200	0.80663451	-7.79287447	-0.00000170	0	0.00000111	-24.49920289	460.22169591	-28.08034079	1.06787152	0	-0.41939270	0	0.00001978	0	0	0.20468656	0.00000000
53.17000000	-3.71167770	0.68018829	-7.78983422	0.00000139	0	-0.00000106	-22.72679031	464.87498580	-27.36458200	1.06271853	0	-0.41911459	0	-0.00000779	0	0	0.43145327	-0.00000000
53.18000000	-3.73920222	0.64773567	-7.78889417	0.00000157	0	-0.00000115	-21.21929204	471.02832875	-27.15591249	1.05735135	0	-0.41877341	0	-0.00001150	0	0	0.59059499	0
53.19000000	-3.76131227	0.71216862	-7.77903031	0.00000090	0	-0.00000065	-19.85403985	478.24614898	-27.50890560	1.05179322	0	-0.41843615	0	-0.00000723	0	0	0.67062690	-0.00000000
53.20000000	-3.78570407	0.81008095	-7.76188912	0.00000031	0	-0.00000022	-18.47618606	486.26717606	-28.38600240	1.04622972	0	-0.41818211	0	-0.00000281	0	0	0.70449119	0.00000000
53.21000000	-3.81061455	0.86796355	-7.76270912	0.00000002	0	-0.00000001	-17.13333569	494.63551347	-29.43339781	1.04076042	0	-0.41802431	0	-0.00000037	0	0	0.70712231	0
53.22000000	-3.82345022	0.83445216	-7.78502083	-0.00000007	0	0.00000005	-15.89434353	502.92824717	-30.47366599	1.03545317	0	-0.41793114	0	0.00000042	0	0	0.74493914	0.00000000
53.23000000	-3.83727707	0.73214468	-7.80113428	-0.00000006	0	0.00000004	-14.74644785	511.11484511	-31.35771358	1.03022098	0	-0.41780684	0	0.00000046	0	0	0.87816966	-0.00000000
53.24000000	-3.86212115	0.62983120	-7.80976630	-0.00000004	0	0.00000003	-13.44149193	519.11448913	-31.91869808	1.02465870	0	-0.41761199	0	0.00000037	0	0	1.04579942	0
53.25000000	-3.87671582	0.51229000	-7.83823632	-0.00000006	0	0.00000003	-11.72820226	526.75288861	-32.23242954	1.01876900	0	-0.41737643	0	0.00000044	0	0	1.22507656	0.00000000
53.26000000	-3.86780553	0.48156946	-7.82206839	-0.00000010	0	0.00000005	-9.59440982	533.83977367	-32.40297160	1.01284543	0	-0.41711941	0	0.00000066	0	0	1.40990391	0
53.27000000	-3.84175322	0.57690376	-7.79344682	-0.00000012	0	0.00000006	-7.18551272	540.26757834	-32.50241954	1.00695514	0	-0.41679350	0	0.00000063	0	0	1.55874961	0
53.28000000	-3.82242706	0.73454149	-7.75010232	0.00000001	0	-0.00000001	-4.62846344	545.74457596	-32.69768979	1.00097659	0	-0.41643267	0	-0.00000053	0	0	1.67721332	0.00000000
53.29000000	-3.83224891	0.90533495	-7.68324304	0.00000051	0	-0.00000026	-1.98287184	549.80621900	-33.12317401	0.99495578	0	-0.41608827	0	-0.00000405	0	0	1.77270740	0
53.30000000	-3.87946297	0.99838517	-7.68278355	0.00000151	0	-0.00000075	0.63437029	552.25289503	-33.80946214	0.98912849	0	-0.41573620	0	-0.00001043	0	0	1.82012402	-0.00000000
53.31000000	-3.95135436	1.00641613	-7.75820731	0.00000270	0	-0.00000133	3.15551719	553.07253892	-34.72391690	0.98353468	0	-0.41536694	0	-0.00001657	0	0	1.79904468	-0.00000000
53.32000000	-4.02508981	1.00782866	-7.87338293	0.00000253	0	-0.00000122	5.50898066	552.29241430	-35.76189415	0.97796955	0	-0.41501407	0	-0.00001116	0	0	1.70286922	-0.00000000
53.33000000	-4.07118385	1.03716234	-8.00873545	-0.00000250	0	0.00000130	7.80317267	550.09315940	-36.73672361	0.97214685	0	-0.41469425	0	0.00002870	0	0	1.59937136	0.00000000
53.34000000	-4.09177795	1.06685570	-8.15089140	-0.00001721	0	0.00000863	10.20241664	547.04576539	-37.55259156	0.96631363	0	-0.41436313	0	0.00013012	0	0	1.56808641	0.00000000
53.35000000	-4.10374420	1.05693029	-8.25021622	-0.00004319	0	0.00002145	12.75518839	543.84275954	-38.18543956	0.96077869	0	-0.41402561	0	0.00028919	0	0	1.60130846	0.00000000
53.36000000	-4.08366445	1.00832894	-8.34154907	-0.00006684	0	0.00003289	15.39886547	541.00520213	-38.65428854	0.95572865	0	-0.41372505	0	0.00039117	0	0	1.66340733	-0.00000000
53.37000000	-4.03635879	0.98066492	-8.45988426	-0.00004067	0	0.00001927	18.03541053	538.76417121	-39.03315595	0.95084334	0	-0.41346903	0	0.00009998	0	0	1.76436074	0
53.38000000	-3.98394572	0.99519961	-8.56474631	0.00012902	0	-0.00006576	20.66814691	537.20243726	-39.40813253	0.94579147	0	-0.41322928	0	-0.00117745	0	0	1.86970528	0.00000000
53.39000000	-3.93739223	1.11700484	-8.61489464	0.00054889	0	-0.00027422	23.21425697	536.32081823	-39.79583945	0.94059872	0	-0.41301132	0	-0.00398077	0	0	1.94203295	-0.00000000
53.40000000	-3.91542103	1.30220743	-8.64269150	0.00118973	0	-0.00058944	25.58109438	536.17091941	-40.17112919	0.93550586	0	-0.41282853	0	-0.00771185	0	0	2.02956987	0
53.41000000	-3.93109715	1.42483449	-8.66614117	0.00155791	0	-0.00076320	27.70621218	536.80567250	-40.47797956	0.93066344	0	-0.41267921	0	-0.00849490	0	0	2.14700006	-0.00000000
53.42000000	-4.00874026	1.35929362	-8.69506911	0.00025410	0	-0.00009946	29.67678471	537.94527240	-40.68270069	0.92567105	0	-0.41255053	0	0.00325769	0	0	2.27801350	0.00000000
53.43000000	-4.21223986	0.99636091	-8.74270211	-0.00513016	0	0.00258975	31.63506073	539.27454605	-40.83294742	0.92032607	0	-0.41242280	0	0.04217648	0	0	2.45452515	0
53.44000000	-4.53891902	0.29715635	-8.79563605	-0.01665594	0	0.00829882	33.63693232	540.42856653	-40.91336172	0.91493398	0	-0.41229356	0	0.11665931	0	0	2.66064238	-0.00000000
53.45000000	-4.77298441	-0.61085298	-8.83879094	-0.03149530	0	0.01556494	35.69953883	540.85000970	-40.81109972	0.90974077	0	-0.41216913	0	0.19691660	0	0	2.84466066	-0.00000000
53.46000000	-4.27762015	-0.90066509	-8.76467093	-0.03318244	0	0.01614289	37.89714930	539.84939564	-40.55883677	0.90487221	0	-0.41207443	0	0.15998263	0	0	2.99667847	0
53.47000000	-1.91307787	1.43642246	-8.40370307	0.01792588	0	-0.00964154	40.33039890	536.76436327	-40.18639617	0.90012634	0	-0.41205410	0	-0.25731943	0	0	3.11536085	0.00000000
53.48000000	3.50653966	9.46173783	-7.62146250	0.18065669	0	-0.09070405	42.92465004	531.25118101	-39.67597168	0.89532572	0	-0.41209364	0	-1.39373996	0	0	3.23581980	0.00000000
